<?xml version="1.0" encoding="UTF-8"?>
<svg version="1.1" xmlns="http://www.w3.org/2000/svg" width="120" height="120">
<path d="M0 0 C9.61759221 7.86229021 16.90810755 17.9659321 18.27392578 30.72827148 C19.09435459 45.84784762 16.33855659 57.82267981 6.4296875 69.61328125 C-1.32277425 77.95794494 -12.57803136 83.00275892 -23.890625 83.91796875 C-30.85000474 84.08041127 -36.20102372 83.32834189 -42.60546875 80.5546875 C-45.15339622 79.44617651 -45.15339622 79.44617651 -48.9453125 79.6796875 C-50.84212845 80.53567663 -50.84212845 80.53567663 -52.6953125 81.6796875 C-57.05864012 83.97145397 -60.05044259 84.26043478 -64.9453125 83.6796875 C-67.44083494 81.97130415 -67.8975156 80.90316174 -68.53515625 77.921875 C-68.70724609 76.25511719 -68.70724609 76.25511719 -68.8828125 74.5546875 C-69.45466885 69.77944261 -70.2439567 65.32087557 -71.51196289 60.68676758 C-75.674299 45.25864199 -76.50895141 28.25957895 -68.4375 14.01953125 C-61.04761481 2.62535943 -51.80398625 -3.21977669 -39.1953125 -7.6328125 C-25.62727102 -10.49070263 -11.23817562 -8.27426117 0 0 Z M-44.3828125 21.9921875 C-50.58784787 30.33568138 -51.64099647 39.38930064 -50.66015625 49.66796875 C-49.86131984 54.19918366 -48.90539252 57.08530462 -45.9453125 60.6796875 C-45.4090625 60.1640625 -44.8728125 59.6484375 -44.3203125 59.1171875 C-41.9453125 57.6796875 -41.9453125 57.6796875 -39.1953125 57.8671875 C-36.82162435 58.46060954 -34.4688589 59.13956649 -32.1328125 59.8671875 C-26.15272307 61.38793682 -21.09766873 59.81917021 -15.7578125 56.9921875 C-9.10762084 51.52425213 -5.43167251 46.62434765 -4.5703125 37.8671875 C-4.83644834 30.51343391 -7.98259572 25.22033576 -13.2578125 20.2421875 C-17.89915399 16.41498296 -21.83012909 15.09504529 -27.7578125 14.3046875 C-34.14538188 15.05616625 -40.00221245 17.1418473 -44.3828125 21.9921875 Z " fill="#FFFFFF" transform="translate(87.9453125,22.3203125)"/>
</svg>
